HIERARCHY
ROOT Hips
{
	OFFSET 0.000000 0.000000 0.000000
	CHANNELS 6 Xposition Yposition Zposition Xrotation Yrotation Zrotation
	JOINT Thigh.L
	{
		OFFSET 0.053933 0.027458 -0.092488
		CHANNELS 3 Xrotation Yrotation Zrotation
		JOINT Shin.L
		{
			OFFSET 0.060624 0.006636 -0.409230
			CHANNELS 3 Xrotation Yrotation Zrotation
			JOINT Foot.L
			{
				OFFSET -0.041204 0.031165 -0.432826
				CHANNELS 3 Xrotation Yrotation Zrotation
				JOINT Toe.L
				{
					OFFSET 0.047118 -0.124944 -0.063835
					CHANNELS 3 Xrotation Yrotation Zrotation
					End Site
					{
						OFFSET 0.000000 0.050000 0.000000
					}
				}
			}
		}
	}
	JOINT Thigh.R
	{
		OFFSET -0.059102 0.021970 -0.104812
		CHANNELS 3 Xrotation Yrotation Zrotation
		JOINT Shin.R
		{
			OFFSET -0.049634 0.014380 -0.390937
			CHANNELS 3 Xrotation Yrotation Zrotation
			JOINT Foot.R
			{
				OFFSET 0.013782 0.019579 -0.441807
				CHANNELS 3 Xrotation Yrotation Zrotation
				JOINT Toe.R
				{
					OFFSET -0.038914 -0.125808 -0.063743
					CHANNELS 3 Xrotation Yrotation Zrotation
					End Site
					{
						OFFSET 0.000000 0.050000 0.000000
					}
				}
			}
		}
	}
	JOINT Spine
	{
		OFFSET -0.002549 0.025936 0.110648
		CHANNELS 3 Xrotation Yrotation Zrotation
		JOINT Spine.2
		{
			OFFSET 0.008347 0.006031 0.136483
			CHANNELS 3 Xrotation Yrotation Zrotation
			JOINT Chest
			{
				OFFSET -0.010427 -0.021727 0.054611
				CHANNELS 3 Xrotation Yrotation Zrotation
				JOINT Neck
				{
					OFFSET -0.011663 0.024402 0.166169
					CHANNELS 3 Xrotation Yrotation Zrotation
					JOINT Head
					{
						OFFSET 0.024792 -0.021358 0.169766
						CHANNELS 3 Xrotation Yrotation Zrotation
						End Site
						{
							OFFSET 0.000000 0.050000 0.000000
						}
					}
				}
				JOINT Clavicle.L
				{
					OFFSET 0.046704 0.004231 0.085567
					CHANNELS 3 Xrotation Yrotation Zrotation
					JOINT UpperArm.L
					{
						OFFSET 0.125032 0.012977 0.056899
						CHANNELS 3 Xrotation Yrotation Zrotation
						JOINT ForeArm.L
						{
							OFFSET 0.268288 0.041828 -0.074994
							CHANNELS 3 Xrotation Yrotation Zrotation
							JOINT Hand.L
							{
								OFFSET 0.271308 0.001207 0.021567
								CHANNELS 3 Xrotation Yrotation Zrotation
								JOINT Thumb1.L
								{
									OFFSET 0.154621 0.000532 0.009509
									CHANNELS 3 Xrotation Yrotation Zrotation
									JOINT Thumb2.L
									{
										OFFSET 0.029905 0.000133 0.002377
										CHANNELS 3 Xrotation Yrotation Zrotation
										End Site
										{
											OFFSET 0.024921 0.000111 0.001981
										}
									}
								}
								JOINT Index1.L
								{
									OFFSET 0.137621 0.000532 0.009509
									CHANNELS 3 Xrotation Yrotation Zrotation
									JOINT Index2.L
									{
										OFFSET 0.029905 0.000133 0.002377
										CHANNELS 3 Xrotation Yrotation Zrotation
										JOINT Index3.L
										{
											OFFSET 0.021931 0.000098 0.001743
											CHANNELS 3 Xrotation Yrotation Zrotation
											End Site
											{
												OFFSET 0.017943 0.000080 0.001426
											}
										}
									}
								}
								JOINT Middle1.L
								{
									OFFSET 0.119621 0.000532 0.009509
									CHANNELS 3 Xrotation Yrotation Zrotation
									JOINT Middle2.L
									{
										OFFSET 0.030902 0.000137 0.002456
										CHANNELS 3 Xrotation Yrotation Zrotation
										JOINT Middle3.L
										{
											OFFSET 0.021931 0.000098 0.001743
											CHANNELS 3 Xrotation Yrotation Zrotation
											End Site
											{
												OFFSET 0.017943 0.000080 0.001426
											}
										}
									}
								}
								JOINT Ring1.L
								{
									OFFSET 0.101621 0.000532 0.009509
									CHANNELS 3 Xrotation Yrotation Zrotation
									JOINT Ring2.L
									{
										OFFSET 0.028909 0.000129 0.002298
										CHANNELS 3 Xrotation Yrotation Zrotation
										JOINT Ring3.L
										{
											OFFSET 0.019937 0.000089 0.001585
											CHANNELS 3 Xrotation Yrotation Zrotation
											End Site
											{
												OFFSET 0.016946 0.000075 0.001347
											}
										}
									}
								}
								JOINT Pinky1.L
								{
									OFFSET 0.085621 0.000532 0.009509
									CHANNELS 3 Xrotation Yrotation Zrotation
									JOINT Pinky2.L
									{
										OFFSET 0.023924 0.000106 0.001902
										CHANNELS 3 Xrotation Yrotation Zrotation
										JOINT Pinky3.L
										{
											OFFSET 0.016946 0.000075 0.001347
											CHANNELS 3 Xrotation Yrotation Zrotation
											End Site
											{
												OFFSET 0.013956 0.000062 0.001109
											}
										}
									}
								}
							}
						}
					}
				}
				JOINT Clavicle.R
				{
					OFFSET -0.047102 0.010264 0.084633
					CHANNELS 3 Xrotation Yrotation Zrotation
					JOINT UpperArm.R
					{
						OFFSET -0.108548 0.009163 0.053381
						CHANNELS 3 Xrotation Yrotation Zrotation
						JOINT ForeArm.R
						{
							OFFSET -0.286221 0.027143 -0.040291
							CHANNELS 3 Xrotation Yrotation Zrotation
							JOINT Hand.R
							{
								OFFSET -0.267680 0.014562 -0.005459
								CHANNELS 3 Xrotation Yrotation Zrotation
								JOINT Thumb1.R
								{
									OFFSET -0.154798 0.006517 -0.002443
									CHANNELS 3 Xrotation Yrotation Zrotation
									JOINT Thumb2.R
									{
										OFFSET -0.029949 0.001629 -0.000611
										CHANNELS 3 Xrotation Yrotation Zrotation
										End Site
										{
											OFFSET -0.024958 0.001358 -0.000509
										}
									}
								}
								JOINT Index1.R
								{
									OFFSET -0.137798 0.006517 -0.002443
									CHANNELS 3 Xrotation Yrotation Zrotation
									JOINT Index2.R
									{
										OFFSET -0.029949 0.001629 -0.000611
										CHANNELS 3 Xrotation Yrotation Zrotation
										JOINT Index3.R
										{
											OFFSET -0.021963 0.001195 -0.000448
											CHANNELS 3 Xrotation Yrotation Zrotation
											End Site
											{
												OFFSET -0.017970 0.000978 -0.000366
											}
										}
									}
								}
								JOINT Middle1.R
								{
									OFFSET -0.119798 0.006517 -0.002443
									CHANNELS 3 Xrotation Yrotation Zrotation
									JOINT Middle2.R
									{
										OFFSET -0.030948 0.001684 -0.000631
										CHANNELS 3 Xrotation Yrotation Zrotation
										JOINT Middle3.R
										{
											OFFSET -0.021963 0.001195 -0.000448
											CHANNELS 3 Xrotation Yrotation Zrotation
											End Site
											{
												OFFSET -0.017970 0.000978 -0.000366
											}
										}
									}
								}
								JOINT Ring1.R
								{
									OFFSET -0.101798 0.006517 -0.002443
									CHANNELS 3 Xrotation Yrotation Zrotation
									JOINT Ring2.R
									{
										OFFSET -0.028951 0.001575 -0.000590
										CHANNELS 3 Xrotation Yrotation Zrotation
										JOINT Ring3.R
										{
											OFFSET -0.019966 0.001086 -0.000407
											CHANNELS 3 Xrotation Yrotation Zrotation
											End Site
											{
												OFFSET -0.016971 0.000923 -0.000346
											}
										}
									}
								}
								JOINT Pinky1.R
								{
									OFFSET -0.085798 0.006517 -0.002443
									CHANNELS 3 Xrotation Yrotation Zrotation
									JOINT Pinky2.R
									{
										OFFSET -0.023960 0.001303 -0.000489
										CHANNELS 3 Xrotation Yrotation Zrotation
										JOINT Pinky3.R
										{
											OFFSET -0.016971 0.000923 -0.000346
											CHANNELS 3 Xrotation Yrotation Zrotation
											End Site
											{
												OFFSET -0.013976 0.000760 -0.000285
											}
										}
									}
								}
							}
						}
					}
				}
			}
		}
	}
}
MOTION
Frames: 4
Frame Time: 0.04166667
0.009705414 -0.051687870 1.106860 -6.750345 -1.132473 -0.056928 4.737337 -3.262718 4.520182 8.506237 2.079682 -6.613233 -8.035327 -1.393639 11.227864 -1.480898 -1.761656 -0.415287 -0.012447 4.303582 -3.868802 16.940409 0.587580 2.371165 -11.001823 -2.697560 -9.416747 -0.192605 -0.609666 1.125172 10.045993 0.044474 1.182284 -8.500834 2.847905 -0.471745 7.468780 -0.701434 -0.379251 0.690660 0.302257 2.601096 6.417564 -0.581644 2.263276 -3.440370 17.154393 1.736879 24.368963 47.610475 -26.430627 20.463882 -1.541617 -23.945238 -1.784462 -4.156502 -6.837040 0.000000 0.000000 0.000000 0.000000 0.000000 0.000000 0.000000 0.000000 0.000000 0.000000 0.000000 0.000000 0.000000 0.000000 0.000000 0.000000 0.000000 0.000000 0.000000 0.000000 0.000000 0.000000 0.000000 0.000000 0.000000 0.000000 0.000000 0.000000 0.000000 0.000000 0.000000 0.000000 0.000000 0.000000 0.000000 0.000000 0.000000 0.000000 0.000000 0.000000 0.000000 0.000000 -3.210674 -17.188173 3.326873 29.711749 -49.572238 28.663424 11.930722 1.235304 27.122042 -2.580253 2.017867 4.044449 0.000000 0.000000 0.000000 0.000000 0.000000 0.000000 0.000000 0.000000 0.000000 0.000000 0.000000 0.000000 0.000000 0.000000 0.000000 0.000000 0.000000 0.000000 0.000000 0.000000 0.000000 0.000000 0.000000 0.000000 0.000000 0.000000 0.000000 0.000000 0.000000 0.000000 0.000000 0.000000 0.000000 0.000000 0.000000 0.000000 0.000000 0.000000 0.000000 0.000000 0.000000 0.000000
0.010606405 -0.053195559 1.107011 -6.687011 -1.015637 -0.180714 4.711362 -3.270382 4.513896 8.431685 1.946198 -6.529215 -8.017070 -1.392225 11.318385 -1.455042 -1.762578 -0.402638 -0.103247 4.115022 -3.697944 16.903126 0.698124 2.439969 -10.813889 -2.633342 -9.503494 -0.198594 -0.613535 1.147276 10.084750 0.004468 1.136587 -8.391680 2.766434 -0.522995 7.362927 -0.685928 -0.428458 0.731334 0.333367 2.680078 6.309896 -0.470923 2.374786 -3.427436 17.281038 1.756166 24.314368 47.578561 -26.338944 20.856089 -1.729052 -23.765522 -1.184474 -3.844495 -6.734053 0.000000 0.000000 0.000000 0.000000 0.000000 0.000000 0.000000 0.000000 0.000000 0.000000 0.000000 0.000000 0.000000 0.000000 0.000000 0.000000 0.000000 0.000000 0.000000 0.000000 0.000000 0.000000 0.000000 0.000000 0.000000 0.000000 0.000000 0.000000 0.000000 0.000000 0.000000 0.000000 0.000000 0.000000 0.000000 0.000000 0.000000 0.000000 0.000000 0.000000 0.000000 0.000000 -3.288129 -17.309295 3.283331 29.644179 -49.514406 28.624064 12.186684 1.412509 27.015829 -2.404432 1.893736 4.005155 0.000000 0.000000 0.000000 0.000000 0.000000 0.000000 0.000000 0.000000 0.000000 0.000000 0.000000 0.000000 0.000000 0.000000 0.000000 0.000000 0.000000 0.000000 0.000000 0.000000 0.000000 0.000000 0.000000 0.000000 0.000000 0.000000 0.000000 0.000000 0.000000 0.000000 0.000000 0.000000 0.000000 0.000000 0.000000 0.000000 0.000000 0.000000 0.000000 0.000000 0.000000 0.000000
0.010575815 -0.054826474 1.107152 -6.627892 -0.961543 -0.226777 4.583132 -3.335980 4.523483 8.559711 1.867213 -6.426940 -7.974521 -1.317565 11.307349 -1.432737 -1.740776 -0.402593 -0.175935 4.003794 -3.628995 16.893269 0.675342 2.425070 -10.713549 -2.568046 -9.505588 -0.214744 -0.637830 1.149063 10.108482 -0.051488 1.089763 -8.273410 2.709535 -0.578053 7.259933 -0.673170 -0.476272 0.753223 0.345050 2.736392 6.227249 -0.372816 2.321203 -3.470906 17.471611 1.825644 24.123822 47.457052 -26.067157 20.975274 -1.822611 -23.605431 -0.679103 -3.614912 -6.713497 0.000000 0.000000 0.000000 0.000000 0.000000 0.000000 0.000000 0.000000 0.000000 0.000000 0.000000 0.000000 0.000000 0.000000 0.000000 0.000000 0.000000 0.000000 0.000000 0.000000 0.000000 0.000000 0.000000 0.000000 0.000000 0.000000 0.000000 0.000000 0.000000 0.000000 0.000000 0.000000 0.000000 0.000000 0.000000 0.000000 0.000000 0.000000 0.000000 0.000000 0.000000 0.000000 -3.329964 -17.592458 3.188136 29.288515 -49.369279 28.215815 12.298344 1.435830 27.034849 -2.127127 1.633374 3.984626 0.000000 0.000000 0.000000 0.000000 0.000000 0.000000 0.000000 0.000000 0.000000 0.000000 0.000000 0.000000 0.000000 0.000000 0.000000 0.000000 0.000000 0.000000 0.000000 0.000000 0.000000 0.000000 0.000000 0.000000 0.000000 0.000000 0.000000 0.000000 0.000000 0.000000 0.000000 0.000000 0.000000 0.000000 0.000000 0.000000 0.000000 0.000000 0.000000 0.000000 0.000000 0.000000
0.010319427 -0.055794180 1.107310 -6.616638 -0.950103 -0.318014 4.445010 -3.383659 4.499298 8.706606 1.839085 -6.317627 -7.877084 -1.283488 11.361813 -1.448610 -1.736033 -0.398080 -0.319375 3.950005 -3.559925 16.993794 0.615807 2.417889 -10.647403 -2.488926 -9.507718 -0.238327 -0.619393 1.174103 10.125156 -0.078372 1.057770 -8.113965 2.651547 -0.619806 7.102164 -0.614461 -0.501689 0.764338 0.355294 2.820111 6.196850 -0.283594 2.300152 -3.493519 17.619931 1.870355 23.842638 47.299553 -25.729031 20.932872 -1.830477 -23.483318 -0.495681 -3.400587 -6.770982 0.000000 0.000000 0.000000 0.000000 0.000000 0.000000 0.000000 0.000000 0.000000 0.000000 0.000000 0.000000 0.000000 0.000000 0.000000 0.000000 0.000000 0.000000 0.000000 0.000000 0.000000 0.000000 0.000000 0.000000 0.000000 0.000000 0.000000 0.000000 0.000000 0.000000 0.000000 0.000000 0.000000 0.000000 0.000000 0.000000 0.000000 0.000000 0.000000 0.000000 0.000000 0.000000 -3.307252 -17.843477 3.097729 28.959387 -49.172382 27.772196 12.327592 1.447444 27.122819 -1.981473 1.403099 3.991308 0.000000 0.000000 0.000000 0.000000 0.000000 0.000000 0.000000 0.000000 0.000000 0.000000 0.000000 0.000000 0.000000 0.000000 0.000000 0.000000 0.000000 0.000000 0.000000 0.000000 0.000000 0.000000 0.000000 0.000000 0.000000 0.000000 0.000000 0.000000 0.000000 0.000000 0.000000 0.000000 0.000000 0.000000 0.000000 0.000000 0.000000 0.000000 0.000000 0.000000 0.000000 0.000000
